<svg width="205" height="216" viewBox="0 0 205 216" fill="none" xmlns="http://www.w3.org/2000/svg">
<path d="M135.9 94H69.3C66.92 94 65 92.07 65 89.7V4.3C65 1.93 66.92 0 69.3 0H135.9C138.27 0 140.2 1.92 140.2 4.3V89.7C140.19 92.07 138.27 94 135.9 94Z" fill="#413685"/>
<path d="M128.95 78.7002C127.97 78.6803 127.02 78.5002 126.14 78.1802C125.6 78.0002 124.81 77.5703 124.79 77.5602C117.56 73.4403 110.67 67.2302 104.42 59.3602C105.92 58.3802 107.39 57.3003 108.83 56.1003C121.79 45.2303 130.32 27.6003 123.08 18.9702C117.69 12.5502 105.89 13.8602 94.8701 19.4302L95.0201 15.2202C95.0501 14.3702 94.4701 13.5902 93.6301 13.4702C92.6601 13.3202 91.8001 14.0302 91.7401 14.9802L91.2901 21.4103C83.9401 25.8203 77.9901 32.1903 75.5801 35.3803C75.3101 35.7303 75.3901 36.2302 75.7401 36.5002C76.1001 36.7802 76.6101 36.7003 76.8801 36.3302C82.4601 28.8102 89.4201 24.6703 91.1301 23.6603L88.4001 62.5102C85.7101 62.8102 83.1601 62.6702 80.8701 62.0503C79.9201 61.7903 78.9901 62.5003 78.9901 63.4903C78.9901 64.1603 79.4401 64.7602 80.0901 64.9302C82.5701 65.5802 85.3101 65.7402 88.2001 65.4403L87.7001 72.5802C87.6001 74.0002 88.5901 75.3202 90.0001 75.5002C91.5501 75.7002 92.9401 74.5203 93.0001 72.9603L93.3001 64.4702C95.6801 63.8102 98.1001 62.8702 100.5 61.6402C107.24 69.3802 114.65 75.2202 122.36 78.6802C123.65 79.2602 124.95 79.7703 126.26 80.2203C127.07 80.5003 129.79 81.0803 129.79 79.6303C129.79 79.1503 129.42 78.7503 128.95 78.7002ZM102.65 57.0102C99.3801 59.1802 96.2601 60.5602 93.4001 61.4302L94.7901 21.6502C104.26 17.0802 114.23 16.1202 118.84 21.6202C121.15 24.3802 121.64 28.1802 120.77 32.3602C119.25 39.6902 113.57 48.1902 106.31 54.2802C105.11 55.2802 103.89 56.1802 102.65 57.0102Z" fill="white"/>
<path d="M33.5651 162.1C37.7451 161.87 40.9751 160.11 43.1551 156.86C45.2551 153.73 46.3251 149.27 46.3251 143.62C46.3251 137.85 45.1951 133.66 42.8651 130.8C40.2851 127.63 36.3051 126.09 30.6951 126.09H9.5351C6.5651 126.09 4.34509 126.71 2.76509 128C0.935092 129.48 0.0050974 131.81 0.0050974 134.95V179.34C-0.0149026 179.55 0.0250882 179.75 0.105088 179.9V179.91C0.115088 179.92 0.115093 179.94 0.125093 179.95C0.305093 180.27 0.645088 180.46 0.995088 180.46C1.02509 180.46 1.06509 180.46 1.09509 180.45H12.0251C12.5751 180.45 13.0251 180 13.0251 179.45V138.68C13.0251 137.09 13.2951 136.64 13.5251 136.43C13.9051 136.09 14.7551 135.94 16.2051 135.94H25.6551C28.7651 135.94 30.6651 136.49 31.6651 137.68C32.5651 138.76 32.9351 140.48 32.9351 143.62C32.9351 146.95 32.6151 148.91 31.8551 150.18C30.9951 151.63 29.4651 152.27 26.9151 152.27H23.0651C21.2551 152.27 19.8151 152.68 18.7651 153.49C17.7151 154.3 17.1351 155.5 17.1351 156.86V158.06C17.1351 160.07 18.3551 161.89 19.2651 163.08L32.3051 180.06C32.4951 180.31 32.7851 180.45 33.0951 180.45H46.4751C46.8551 180.45 47.2151 180.23 47.3751 179.88C47.5351 179.53 47.4851 179.11 47.2451 178.82L33.5651 162.1Z" fill="#413685"/>
<path d="M84.0551 138.95L83.7851 138.93L62.1151 138.8V147.53H78.0851C79.8851 147.53 81.2251 147.92 82.0651 148.7C82.8751 149.46 83.2751 150.61 83.2751 152.21V153.75H70.8951C66.9451 153.75 63.8751 155 61.7851 157.47C59.8351 159.77 58.8551 163.01 58.8551 167.09C58.8551 171.52 59.8151 174.77 61.8051 177.01C63.8151 179.28 66.8751 180.43 70.8951 180.43H86.5351C89.2851 180.43 91.4051 179.78 92.8451 178.49C94.3151 177.18 95.0551 175.23 95.0551 172.7V151.48C95.0551 147.77 93.8851 144.64 91.6651 142.42C89.7751 140.5 87.2151 139.34 84.0551 138.95ZM83.2751 162.51V170.49C83.2751 170.94 83.1751 171.25 82.9851 171.43C82.7551 171.63 82.3351 171.74 81.7651 171.74H74.6551C73.3151 171.74 72.3951 171.4 71.8351 170.71C71.2551 169.99 70.9651 168.82 70.9651 167.13C70.9651 165.44 71.2451 164.27 71.8351 163.55C72.3651 162.89 73.2251 162.55 74.4451 162.52H83.2751V162.51Z" fill="#413685"/>
<path d="M125.845 167.11C124.755 165.87 124.035 164.23 123.575 161.94C123.145 159.8 122.945 157.04 122.945 153.28C122.945 149.52 123.145 146.76 123.575 144.62C124.035 142.33 124.755 140.69 125.845 139.45C127.995 137 131.905 135.96 138.915 135.96H149.865V126.09H133.725C124.055 126.09 117.535 128.68 113.795 134C110.065 139.32 109.555 146.73 109.555 153.28C109.555 159.83 110.055 167.24 113.795 172.56C117.525 177.88 124.045 180.47 133.725 180.47H150.785V170.6H138.915C131.905 170.6 128.005 169.55 125.845 167.11Z" fill="#413685"/>
<path d="M199.845 142.85C196.605 139.7 191.685 138.36 183.385 138.36C175.065 138.36 170.145 139.69 166.925 142.79C163.625 145.98 162.145 151.15 162.145 159.55C162.145 167.97 163.615 173.16 166.915 176.38C170.155 179.54 175.075 180.89 183.375 180.89C191.675 180.89 196.605 179.54 199.835 176.38C203.135 173.15 204.615 167.96 204.615 159.55C204.625 151.21 203.155 146.06 199.845 142.85ZM190.755 169.45C189.475 171.33 187.205 172.17 183.385 172.17C179.565 172.17 177.295 171.33 176.015 169.45C174.785 167.64 174.265 164.68 174.265 159.56C174.265 154.46 174.785 151.52 176.015 149.75C177.285 147.92 179.555 147.1 183.385 147.1C187.215 147.1 189.485 147.92 190.755 149.75C191.975 151.52 192.505 154.46 192.505 159.56C192.505 164.68 191.985 167.64 190.755 169.45Z" fill="#413685"/>
<path d="M12.08 199.02C12.14 199.08 12.16 199.14 12.16 199.22V201.06C12.16 201.14 12.13 201.21 12.08 201.26C12.02 201.32 11.96 201.34 11.88 201.34H7.49001C7.41001 201.34 7.37001 201.38 7.37001 201.46V215.37C7.37001 215.45 7.34001 215.52 7.29001 215.57C7.23001 215.63 7.17001 215.65 7.09001 215.65H4.90001C4.82001 215.65 4.75001 215.62 4.70001 215.57C4.64001 215.51 4.62001 215.45 4.62001 215.37V201.47C4.62001 201.39 4.58 201.35 4.5 201.35H0.279999C0.199999 201.35 0.130002 201.32 0.0800018 201.27C0.0200018 201.21 0 201.15 0 201.07V199.23C0 199.15 0.0300018 199.08 0.0800018 199.03C0.140002 198.97 0.199999 198.95 0.279999 198.95H11.89C11.96 198.94 12.02 198.96 12.08 199.02Z" fill="#413685"/>
<path d="M24.6999 215.46L21.5499 208.57C21.5199 208.51 21.4699 208.47 21.4099 208.47H18.5499C18.4699 208.47 18.4299 208.51 18.4299 208.59V215.38C18.4299 215.46 18.3999 215.53 18.3499 215.58C18.2899 215.64 18.2299 215.66 18.1499 215.66H15.9599C15.8799 215.66 15.8099 215.63 15.7599 215.58C15.6999 215.52 15.6799 215.46 15.6799 215.38V199.22C15.6799 199.14 15.7099 199.07 15.7599 199.02C15.8199 198.96 15.8799 198.94 15.9599 198.94H22.5199C23.4899 198.94 24.3499 199.14 25.0999 199.55C25.8499 199.96 26.4299 200.53 26.8399 201.27C27.2499 202.01 27.4599 202.86 27.4599 203.82C27.4599 204.92 27.1799 205.86 26.6099 206.63C26.0499 207.4 25.2599 207.94 24.2599 208.24C24.2299 208.24 24.1999 208.26 24.1899 208.29C24.1699 208.32 24.1699 208.35 24.1899 208.39L27.5499 215.35C27.5799 215.41 27.5999 215.46 27.5999 215.49C27.5999 215.62 27.5099 215.68 27.3399 215.68H25.0499C24.8799 215.67 24.7699 215.6 24.6999 215.46ZM18.4299 201.45V206.21C18.4299 206.29 18.4699 206.33 18.5499 206.33H22.1299C22.8899 206.33 23.5099 206.1 23.9799 205.65C24.4499 205.2 24.6799 204.6 24.6799 203.85C24.6799 203.1 24.4399 202.5 23.9799 202.03C23.5099 201.57 22.8999 201.34 22.1299 201.34H18.5499C18.4699 201.33 18.4299 201.37 18.4299 201.45Z" fill="#413685"/>
<path d="M41.82 215.43L41.03 212.87C41 212.81 40.96 212.77 40.91 212.77H34.62C34.57 212.77 34.53 212.8 34.5 212.87L33.71 215.43C33.66 215.59 33.56 215.67 33.4 215.67H31.02C30.92 215.67 30.85 215.64 30.81 215.59C30.76 215.53 30.75 215.45 30.79 215.34L35.96 199.18C36.01 199.02 36.11 198.94 36.27 198.94H39.25C39.41 198.94 39.51 199.02 39.56 199.18L44.76 215.34C44.78 215.37 44.78 215.41 44.78 215.46C44.78 215.6 44.69 215.67 44.52 215.67H42.14C41.97 215.67 41.87 215.59 41.82 215.43ZM35.34 210.6H40.18C40.28 210.6 40.31 210.55 40.28 210.46L37.82 202.45C37.8 202.39 37.78 202.35 37.75 202.35C37.72 202.35 37.69 202.38 37.68 202.45L35.25 210.46C35.22 210.55 35.26 210.6 35.34 210.6Z" fill="#413685"/>
<path d="M57.9699 199.02C58.0299 198.96 58.09 198.94 58.17 198.94H60.3599C60.4399 198.94 60.51 198.97 60.56 199.02C60.62 199.08 60.6399 199.14 60.6399 199.22V215.38C60.6399 215.46 60.61 215.53 60.56 215.58C60.5 215.64 60.4399 215.66 60.3599 215.66H58.2399C58.0799 215.66 57.9699 215.6 57.9099 215.47L51.0399 204.19C51.0099 204.14 50.9799 204.12 50.9399 204.13C50.9099 204.14 50.8899 204.17 50.8899 204.24L50.9399 215.38C50.9399 215.46 50.9099 215.53 50.8599 215.58C50.7999 215.64 50.7399 215.66 50.6599 215.66H48.4699C48.3899 215.66 48.3199 215.63 48.2699 215.58C48.2099 215.52 48.1899 215.46 48.1899 215.38V199.22C48.1899 199.14 48.2199 199.07 48.2699 199.02C48.3299 198.96 48.3899 198.94 48.4699 198.94H50.59C50.75 198.94 50.86 199 50.92 199.13L57.7599 210.41C57.7899 210.46 57.8199 210.48 57.8499 210.47C57.8799 210.46 57.8999 210.43 57.8999 210.36L57.8799 199.22C57.8899 199.14 57.9199 199.08 57.9699 199.02Z" fill="#413685"/>
<path d="M67.23 215.26C66.31 214.86 65.6 214.3 65.1 213.59C64.6 212.87 64.35 212.03 64.35 211.06V210.46C64.35 210.38 64.38 210.31 64.43 210.26C64.49 210.2 64.55 210.18 64.63 210.18H66.75C66.83 210.18 66.9 210.21 66.95 210.26C67.01 210.32 67.03 210.38 67.03 210.46V210.91C67.03 211.64 67.36 212.25 68.01 212.74C68.66 213.23 69.55 213.47 70.68 213.47C71.65 213.47 72.38 213.26 72.87 212.85C73.36 212.44 73.61 211.9 73.61 211.25C73.61 210.8 73.47 210.43 73.2 210.11C72.93 209.8 72.54 209.52 72.04 209.26C71.54 209 70.79 208.69 69.79 208.3C68.66 207.89 67.75 207.5 67.05 207.13C66.35 206.76 65.77 206.27 65.3 205.64C64.83 205.01 64.6 204.23 64.6 203.29C64.6 201.89 65.11 200.78 66.13 199.97C67.15 199.16 68.51 198.75 70.21 198.75C71.4 198.75 72.45 198.96 73.37 199.37C74.28 199.78 74.99 200.36 75.5 201.1C76.01 201.84 76.26 202.7 76.26 203.67V204.08C76.26 204.16 76.23 204.23 76.18 204.28C76.12 204.34 76.06 204.36 75.98 204.36H73.83C73.75 204.36 73.68 204.33 73.63 204.28C73.57 204.22 73.55 204.16 73.55 204.08V203.82C73.55 203.07 73.24 202.44 72.63 201.92C72.02 201.4 71.17 201.14 70.09 201.14C69.22 201.14 68.54 201.32 68.05 201.69C67.57 202.06 67.32 202.57 67.32 203.24C67.32 203.72 67.45 204.11 67.7 204.41C67.95 204.71 68.34 204.99 68.84 205.23C69.35 205.48 70.13 205.79 71.2 206.17C72.33 206.6 73.23 206.99 73.91 207.34C74.59 207.69 75.17 208.18 75.65 208.81C76.13 209.44 76.38 210.22 76.38 211.16C76.38 212.59 75.85 213.73 74.79 214.58C73.73 215.43 72.29 215.85 70.46 215.85C69.24 215.86 68.16 215.66 67.23 215.26Z" fill="#413685"/>
<path d="M89.48 199.53C90.24 199.94 90.83 200.53 91.26 201.29C91.68 202.05 91.89 202.92 91.89 203.91C91.89 204.88 91.68 205.74 91.25 206.49C90.82 207.24 90.21 207.82 89.43 208.22C88.64 208.63 87.73 208.83 86.7 208.83H82.89C82.81 208.83 82.77 208.87 82.77 208.95V215.38C82.77 215.46 82.74 215.53 82.69 215.58C82.63 215.64 82.57 215.66 82.49 215.66H80.3C80.22 215.66 80.15 215.63 80.1 215.58C80.04 215.52 80.02 215.46 80.02 215.38V199.2C80.02 199.12 80.05 199.05 80.1 199C80.16 198.94 80.22 198.92 80.3 198.92H86.86C87.83 198.91 88.71 199.12 89.48 199.53ZM88.38 205.87C88.87 205.39 89.12 204.76 89.12 203.98C89.12 203.18 88.87 202.54 88.38 202.04C87.89 201.55 87.24 201.3 86.42 201.3H82.87C82.79 201.3 82.75 201.34 82.75 201.42V206.46C82.75 206.54 82.79 206.58 82.87 206.58H86.42C87.24 206.59 87.89 206.35 88.38 205.87Z" fill="#413685"/>
<path d="M97.75 215.18C96.83 214.69 96.12 214 95.62 213.11C95.12 212.22 94.87 211.19 94.87 210.03V204.58C94.87 203.43 95.12 202.42 95.63 201.53C96.14 200.65 96.85 199.96 97.76 199.47C98.67 198.98 99.73 198.74 100.92 198.74C102.13 198.74 103.19 198.98 104.1 199.47C105.01 199.96 105.72 200.64 106.23 201.53C106.74 202.41 106.99 203.43 106.99 204.58V210.03C106.99 211.19 106.74 212.22 106.23 213.11C105.72 214 105.01 214.69 104.1 215.18C103.19 215.67 102.12 215.91 100.92 215.91C99.73 215.91 98.67 215.67 97.75 215.18ZM103.33 212.59C103.93 211.97 104.24 211.15 104.24 210.13V204.56C104.24 203.53 103.94 202.7 103.33 202.07C102.73 201.45 101.92 201.14 100.92 201.14C99.93 201.14 99.14 201.45 98.54 202.07C97.94 202.69 97.63 203.52 97.63 204.56V210.13C97.63 211.15 97.93 211.97 98.54 212.59C99.14 213.21 99.94 213.52 100.92 213.52C101.92 213.52 102.72 213.21 103.33 212.59Z" fill="#413685"/>
<path d="M120.06 215.46L116.91 208.57C116.88 208.51 116.83 208.47 116.77 208.47H113.91C113.83 208.47 113.79 208.51 113.79 208.59V215.38C113.79 215.46 113.76 215.53 113.71 215.58C113.65 215.64 113.59 215.66 113.51 215.66H111.32C111.24 215.66 111.17 215.63 111.12 215.58C111.06 215.52 111.04 215.46 111.04 215.38V199.22C111.04 199.14 111.07 199.07 111.12 199.02C111.18 198.96 111.24 198.94 111.32 198.94H117.88C118.85 198.94 119.71 199.14 120.46 199.55C121.21 199.96 121.79 200.53 122.2 201.27C122.61 202.01 122.82 202.86 122.82 203.82C122.82 204.92 122.54 205.86 121.97 206.63C121.41 207.4 120.62 207.94 119.62 208.24C119.59 208.24 119.56 208.26 119.55 208.29C119.54 208.32 119.53 208.35 119.55 208.39L122.91 215.35C122.94 215.41 122.96 215.46 122.96 215.49C122.96 215.62 122.87 215.68 122.7 215.68H120.41C120.24 215.67 120.13 215.6 120.06 215.46ZM113.79 201.45V206.21C113.79 206.29 113.83 206.33 113.91 206.33H117.49C118.25 206.33 118.87 206.1 119.34 205.65C119.81 205.2 120.04 204.6 120.04 203.85C120.04 203.1 119.8 202.5 119.34 202.03C118.87 201.57 118.26 201.34 117.49 201.34H113.91C113.83 201.33 113.79 201.37 113.79 201.45Z" fill="#413685"/>
<path d="M137.74 199.02C137.8 199.08 137.82 199.14 137.82 199.22V201.06C137.82 201.14 137.79 201.21 137.74 201.26C137.68 201.32 137.62 201.34 137.54 201.34H133.15C133.07 201.34 133.03 201.38 133.03 201.46V215.37C133.03 215.45 133 215.52 132.95 215.57C132.89 215.63 132.83 215.65 132.75 215.65H130.56C130.48 215.65 130.41 215.62 130.36 215.57C130.3 215.51 130.28 215.45 130.28 215.37V201.47C130.28 201.39 130.24 201.35 130.16 201.35H125.94C125.86 201.35 125.79 201.32 125.74 201.27C125.68 201.21 125.66 201.15 125.66 201.07V199.23C125.66 199.15 125.69 199.08 125.74 199.03C125.8 198.97 125.86 198.95 125.94 198.95H137.55C137.62 198.94 137.68 198.96 137.74 199.02Z" fill="#413685"/>
<path d="M149.91 215.43L149.12 212.87C149.09 212.81 149.05 212.77 149 212.77H142.71C142.66 212.77 142.62 212.8 142.59 212.87L141.8 215.43C141.75 215.59 141.65 215.67 141.49 215.67H139.11C139.01 215.67 138.94 215.64 138.9 215.59C138.85 215.53 138.84 215.45 138.88 215.34L144.05 199.18C144.1 199.02 144.2 198.94 144.36 198.94H147.34C147.5 198.94 147.6 199.02 147.65 199.18L152.85 215.34C152.87 215.37 152.87 215.41 152.87 215.46C152.87 215.6 152.78 215.67 152.61 215.67H150.23C150.06 215.67 149.96 215.59 149.91 215.43ZM143.43 210.6H148.27C148.37 210.6 148.4 210.55 148.37 210.46L145.91 202.45C145.89 202.39 145.87 202.35 145.84 202.35C145.81 202.35 145.78 202.38 145.77 202.45L143.34 210.46C143.32 210.55 143.35 210.6 143.43 210.6Z" fill="#413685"/>
<path d="M165.59 199.02C165.65 199.08 165.67 199.14 165.67 199.22V201.06C165.67 201.14 165.64 201.21 165.59 201.26C165.53 201.32 165.47 201.34 165.39 201.34H161C160.92 201.34 160.88 201.38 160.88 201.46V215.37C160.88 215.45 160.85 215.52 160.8 215.57C160.74 215.63 160.68 215.65 160.6 215.65H158.41C158.33 215.65 158.26 215.62 158.21 215.57C158.15 215.51 158.13 215.45 158.13 215.37V201.47C158.13 201.39 158.09 201.35 158.01 201.35H153.79C153.71 201.35 153.64 201.32 153.59 201.27C153.53 201.21 153.51 201.15 153.51 201.07V199.23C153.51 199.15 153.54 199.08 153.59 199.03C153.65 198.97 153.71 198.95 153.79 198.95H165.4C165.46 198.94 165.53 198.96 165.59 199.02Z" fill="#413685"/>
<path d="M169.26 215.59C169.2 215.53 169.18 215.47 169.18 215.39V199.22C169.18 199.14 169.21 199.07 169.26 199.02C169.32 198.96 169.38 198.94 169.46 198.94H171.65C171.73 198.94 171.8 198.97 171.85 199.02C171.91 199.08 171.93 199.14 171.93 199.22V215.38C171.93 215.46 171.9 215.53 171.85 215.58C171.79 215.64 171.73 215.66 171.65 215.66H169.46C169.38 215.67 169.31 215.64 169.26 215.59Z" fill="#413685"/>
<path d="M178.85 215.18C177.93 214.69 177.22 214 176.72 213.11C176.22 212.22 175.97 211.19 175.97 210.03V204.58C175.97 203.43 176.22 202.42 176.73 201.53C177.24 200.65 177.95 199.96 178.86 199.47C179.77 198.98 180.83 198.74 182.02 198.74C183.23 198.74 184.29 198.98 185.2 199.47C186.11 199.96 186.82 200.64 187.33 201.53C187.84 202.41 188.09 203.43 188.09 204.58V210.03C188.09 211.19 187.84 212.22 187.33 213.11C186.82 214 186.11 214.69 185.2 215.18C184.29 215.67 183.22 215.91 182.02 215.91C180.83 215.91 179.77 215.67 178.85 215.18ZM184.43 212.59C185.03 211.97 185.34 211.15 185.34 210.13V204.56C185.34 203.53 185.04 202.7 184.43 202.07C183.83 201.45 183.02 201.14 182.02 201.14C181.03 201.14 180.24 201.45 179.64 202.07C179.04 202.69 178.73 203.52 178.73 204.56V210.13C178.73 211.15 179.03 211.97 179.64 212.59C180.24 213.21 181.04 213.52 182.02 213.52C183.03 213.52 183.83 213.21 184.43 212.59Z" fill="#413685"/>
<path d="M201.92 199.02C201.98 198.96 202.04 198.94 202.12 198.94H204.31C204.39 198.94 204.46 198.97 204.51 199.02C204.57 199.08 204.59 199.14 204.59 199.22V215.38C204.59 215.46 204.56 215.53 204.51 215.58C204.45 215.64 204.39 215.66 204.31 215.66H202.19C202.03 215.66 201.92 215.6 201.86 215.47L194.99 204.19C194.96 204.14 194.93 204.12 194.89 204.13C194.86 204.14 194.84 204.17 194.84 204.24L194.89 215.38C194.89 215.46 194.86 215.53 194.81 215.58C194.75 215.64 194.69 215.66 194.61 215.66H192.42C192.34 215.66 192.27 215.63 192.22 215.58C192.16 215.52 192.14 215.46 192.14 215.38V199.22C192.14 199.14 192.17 199.07 192.22 199.02C192.28 198.96 192.34 198.94 192.42 198.94H194.54C194.7 198.94 194.81 199 194.87 199.13L201.71 210.41C201.74 210.46 201.77 210.48 201.8 210.47C201.83 210.46 201.85 210.43 201.85 210.36L201.83 199.22C201.83 199.14 201.86 199.08 201.92 199.02Z" fill="#413685"/>
</svg>
