<svg width="24" height="25" viewBox="0 0 24 25" fill="none" xmlns="http://www.w3.org/2000/svg">
<path d="M11.53 24.3601C8.59002 24.3601 5.77 23.1901 3.63 21.1001C1.49 19.0001 0.200014 16.1401 0.0200139 13.0901C-0.159986 10.0401 0.790048 7.04008 2.68005 4.69008C4.56005 2.35008 7.23002 0.840112 10.15 0.470112C11.92 0.240112 13.72 0.450088 15.41 1.07009C15.52 1.11009 15.62 1.18015 15.71 1.26015C15.79 1.34015 15.86 1.44019 15.91 1.55019C15.96 1.66019 15.99 1.77017 16 1.90017C16 2.02017 15.9899 2.14014 15.9499 2.25014C15.9099 2.37014 15.85 2.4702 15.77 2.5602C15.69 2.6502 15.59 2.72017 15.49 2.78017C15.38 2.83017 15.27 2.86013 15.15 2.86013C15.04 2.87013 14.9201 2.8502 14.8101 2.8102C12.6301 2.0002 10.24 2.03015 8.07995 2.88015C5.90995 3.73015 4.10998 5.3601 2.98998 7.4601C1.86998 9.5701 1.50996 12.0201 1.95996 14.3801C2.41996 16.7301 3.66998 18.8501 5.48998 20.3401C7.00998 21.5801 8.85002 22.3201 10.78 22.4701C12.71 22.6201 14.6299 22.1701 16.3199 21.1901C17.9999 20.2001 19.36 18.7102 20.23 16.9202C21.1 15.1302 21.44 13.1101 21.21 11.1101C21.19 10.9901 21.2 10.8701 21.23 10.7501C21.26 10.6301 21.32 10.5202 21.39 10.4302C21.46 10.3302 21.55 10.2501 21.66 10.1901C21.76 10.1301 21.87 10.0901 21.99 10.0801C22.1 10.0601 22.22 10.0701 22.34 10.1101C22.45 10.1401 22.55 10.2002 22.65 10.2702C22.74 10.3502 22.82 10.4402 22.87 10.5502C22.93 10.6502 22.97 10.7702 22.98 10.8902C23.18 12.5802 23.0401 14.2902 22.5601 15.9102C22.0701 17.5402 21.26 19.0302 20.18 20.3102C19.1 21.5802 17.77 22.6002 16.28 23.3002C14.79 24.0002 13.17 24.3601 11.53 24.3601Z" fill="#1C274C"/>
<path d="M11.53 20.6101C11.3 20.6101 11.07 20.5101 10.91 20.3401C10.74 20.1701 10.65 19.9301 10.65 19.6901V10.8301C10.65 10.5901 10.74 10.3502 10.91 10.1802C11.07 10.0102 11.3 9.91016 11.53 9.91016C11.77 9.91016 11.99 10.0102 12.16 10.1802C12.33 10.3502 12.42 10.5901 12.42 10.8301V19.6901C12.42 19.9301 12.33 20.1701 12.16 20.3401C11.99 20.5101 11.77 20.6101 11.53 20.6101Z" fill="#868DA4"/>
<path d="M11.53 8.81006C12.16 8.81006 12.67 8.28 12.67 7.63C12.67 6.97 12.16 6.43994 11.53 6.43994C10.9 6.43994 10.39 6.97 10.39 7.63C10.39 8.28 10.9 8.81006 11.53 8.81006Z" fill="#868DA4"/>
</svg>
