<svg width="688" height="711" viewBox="0 0 688 711" fill="none" xmlns="http://www.w3.org/2000/svg">
<path d="M252.335 321.333C249.002 321 245.002 321 241.335 321.333C162.002 318.667 99.002 253.667 99.002 173.667C99.002 92.0001 165.002 25.6667 247.002 25.6667C328.67 25.6667 395.003 92.0001 395.003 173.667C394.67 253.667 331.67 318.667 252.335 321.333Z" stroke="#1C274C" stroke-width="50" stroke-linecap="round" stroke-linejoin="round"/>
<path d="M494 92.3333C558.667 92.3333 610.667 144.667 610.667 209C610.667 272 560.667 323.333 498.334 325.667C495.667 325.333 492.667 325.333 489.667 325.667" stroke="#1C274C" stroke-width="50" stroke-linecap="round" stroke-linejoin="round"/>
<path d="M85.666 444.333C4.99935 498.333 4.99935 586.333 85.666 640C177.333 701.333 327.667 701.333 419.334 640C500 586 500 498 419.334 444.333C328 383.333 177.666 383.333 85.666 444.333Z" stroke="#1C274C" stroke-width="50" stroke-linecap="round" stroke-linejoin="round"/>
<path d="M558.337 625.667C582.337 620.667 605.004 611 623.67 596.667C675.67 557.667 675.67 493.333 623.67 454.333C605.337 440.333 583.004 431 559.337 425.667" stroke="#1C274C" stroke-width="50" stroke-linecap="round" stroke-linejoin="round"/>
</svg>
