<svg width="669" height="668" viewBox="0 0 669 668" fill="none" xmlns="http://www.w3.org/2000/svg">
<path d="M235.333 0.666504C148 0.666504 77 71.6665 77 159C77 244.666 144 314 231.333 317C234 316.666 236.667 316.666 238.667 317C239.333 317 239.667 317 240.333 317C240.667 317 240.667 317 241 317C326.333 314 393.333 244.666 393.667 159C393.667 71.6665 322.667 0.666504 235.333 0.666504Z" fill="#1C274C"/>
<path d="M403.999 405.5C310.999 343.5 159.333 343.5 65.6667 405.5C23.3333 433.833 0 472.167 0 513.167C0 554.167 23.3333 592.167 65.3333 620.167C112 651.5 173.333 667.167 234.667 667.167C295.999 667.167 357.332 651.5 403.999 620.167C445.999 591.833 469.332 553.833 469.332 512.5C468.999 471.5 445.999 433.5 403.999 405.5Z" fill="#1C274C"/>
<path d="M633 110.449C638.333 175.115 592.333 231.78 528.667 239.447C528.333 239.447 528.333 239.447 528 239.447H527C525 239.447 523 239.447 521.333 240.114C489 241.78 459.333 231.447 437 212.447C471.333 181.782 491 135.782 487 85.782C484.667 58.782 475.333 34.1153 461.333 13.1153C474 6.78197 488.667 2.78198 503.667 1.44864C569 -4.21802 627.333 44.4486 633 110.449Z" fill="#1C274C"/>
<path d="M667.667 418.347C665 450.68 644.333 478.68 609.667 497.68C576.333 516.013 534.333 524.68 492.667 523.68C516.667 502.013 530.667 475.013 533.333 446.347C536.667 405.013 517 365.347 477.667 333.68C455.333 316.013 429.333 302.013 401 291.68C474.667 270.347 567.333 284.68 624.333 330.68C655 355.347 670.667 386.347 667.667 418.347Z" fill="#1C274C"/>
</svg>
