<svg width="35" height="35" viewBox="0 0 35 35" fill="none" xmlns="http://www.w3.org/2000/svg">
<path d="M30.5802 0C32.5402 0 33.52 2.3562 32.14 3.7343L30.2901 5.5764C31.5301 6.9049 32.5602 8.4225 33.3402 10.0777C34.5702 12.6839 35.1301 15.5509 34.9801 18.4248C34.8201 21.2987 33.9601 24.0907 32.4601 26.5536C30.9701 29.0163 28.89 31.0741 26.4 32.5441C23.92 34.0143 21.1101 34.8517 18.2201 34.982C15.3301 35.1124 12.4502 34.5316 9.85021 33.2913C7.24021 32.0512 4.98012 30.1894 3.26012 27.8716C1.55012 25.5535 0.440128 22.8506 0.0201282 20.0023C-0.149872 18.8066 0.679991 17.6973 1.87999 17.5245C3.07999 17.3518 4.20023 18.181 4.37023 19.3767C4.68023 21.513 5.52016 23.5401 6.80016 25.2787C8.09016 27.0171 9.7801 28.4134 11.7401 29.3435C13.7001 30.2737 15.8501 30.7092 18.0201 30.6116C20.1801 30.5138 22.29 29.8858 24.16 28.7831C26.02 27.6804 27.5801 26.1373 28.7001 24.2902C29.8301 22.4431 30.4702 20.349 30.5902 18.1936C30.7002 16.0382 30.2802 13.8879 29.3602 11.9333C28.8002 10.7395 28.06 9.6412 27.18 8.6726L25.5702 10.2764C24.1802 11.6545 21.8202 10.6785 21.8202 8.7296V0H30.5802ZM3.14 8.75C4.35 8.75 5.3402 9.7294 5.3402 10.9375C5.3402 12.1456 4.35 13.125 3.14 13.125C1.92 13.125 0.94005 12.1456 0.94005 10.9375C0.94005 9.7294 1.92 8.75 3.14 8.75ZM8.08019 2.7344C9.30019 2.7344 10.2801 3.7138 10.2801 4.9219C10.2801 6.13 9.30019 7.1094 8.08019 7.1094C6.87019 7.1094 5.87999 6.13 5.87999 4.9219C5.87999 3.7138 6.87019 2.7344 8.08019 2.7344ZM15.2201 0C16.4401 0 17.42 0.9794 17.42 2.1875C17.42 3.3956 16.4401 4.375 15.2201 4.375C14.0101 4.375 13.0301 3.3956 13.0301 2.1875C13.0301 0.9794 14.0101 0 15.2201 0Z" fill="white"/>
</svg>
