<svg width="23" height="25" viewBox="0 0 23 25" fill="none" xmlns="http://www.w3.org/2000/svg">
<path fill-rule="evenodd" clip-rule="evenodd" d="M20.4399 10.1602C20.4399 4.79016 16.43 0.620117 11.5 0.620117C6.57 0.620117 2.56006 4.79017 2.56006 9.92017C1.07006 10.7102 0 12.1701 0 13.9001V16.5502C0 17.6102 0.399995 18.6201 1.12 19.3701C1.84 20.1201 2.81996 20.5402 3.82996 20.5402H5.10999C5.44999 20.5402 5.78001 20.4001 6.01001 20.1501C6.25001 19.9001 6.39001 19.5601 6.39001 19.2101V11.2401C6.39001 10.8901 6.25001 10.5502 6.01001 10.3002C5.78001 10.0602 5.44999 9.92017 5.10999 9.92017C5.10999 8.15017 5.77998 6.47009 6.97998 5.22009C8.17998 3.98009 9.81 3.28015 11.5 3.28015C13.19 3.28015 14.82 3.98009 16.02 5.22009C17.22 6.47009 17.89 8.15017 17.89 9.92017C17.55 9.92017 17.22 10.0602 16.99 10.3002C16.75 10.5502 16.61 10.8901 16.61 11.2401V19.2101C16.61 19.5601 16.75 19.9001 16.99 20.1501C17.22 20.4001 17.55 20.5402 17.89 20.5402V21.8601H14.58C14.31 21.0901 13.61 20.5402 12.78 20.5402H10.22C9.70997 20.5402 9.22999 20.7501 8.87 21.1201C8.51 21.4901 8.31006 22.0002 8.31006 22.5302C8.31006 23.0602 8.51 23.5601 8.87 23.9401C9.22999 24.3101 9.70997 24.5201 10.22 24.5201H17.89C18.57 24.5201 19.22 24.2401 19.7 23.7401C20.18 23.2401 20.4399 22.5701 20.4399 21.8601V20.2902C21.1899 20.0202 21.84 19.5201 22.29 18.8501C22.75 18.1801 23 17.3702 23 16.5502V13.9001C23 13.0801 22.75 12.2801 22.29 11.6101C21.84 10.9401 21.1899 10.4302 20.4399 10.1602Z" fill="#1C274C"/>
</svg>
