<svg width="31" height="21" viewBox="0 0 31 21" fill="none" xmlns="http://www.w3.org/2000/svg">
<path d="M2.62712 10.5C2.62712 11.9875 2.99929 13.3492 3.74364 14.5852C4.48799 15.8211 5.48411 16.7672 6.73199 17.4234C7.03849 17.5984 7.26289 17.85 7.40519 18.1781C7.54749 18.5062 7.55297 18.8344 7.42161 19.1625C7.29025 19.5125 7.06038 19.7641 6.73199 19.9172C6.4036 20.0703 6.08616 20.0594 5.77966 19.8844C4.07203 19.0094 2.68185 17.7461 1.60911 16.0945C0.53637 14.443 0 12.5781 0 10.5C0 8.44375 0.519951 6.59531 1.55985 4.95469C2.59975 3.31406 3.96257 2.05625 5.6483 1.18125C5.9548 1.00625 6.27772 0.989844 6.61705 1.13203C6.95639 1.27422 7.20268 1.52031 7.35593 1.87031C7.50918 2.17656 7.52013 2.49375 7.38877 2.82187C7.25741 3.15 7.03849 3.40156 6.73199 3.57656C5.48411 4.23281 4.48799 5.17891 3.74364 6.41484C2.99929 7.65078 2.62712 9.0125 2.62712 10.5ZM18.3898 21C15.4781 21 12.9988 19.9773 10.9518 17.932C8.90484 15.8867 7.88136 13.4094 7.88136 10.5C7.88136 7.59062 8.90484 5.11328 10.9518 3.06797C12.9988 1.02266 15.4781 0 18.3898 0C19.6158 0 20.7761 0.196875 21.8708 0.590625C22.9654 0.984375 23.9615 1.53125 24.8591 2.23125C25.1437 2.45 25.286 2.73437 25.286 3.08437C25.286 3.43437 25.1547 3.74062 24.8919 4.00312C24.6511 4.24375 24.3501 4.375 23.9889 4.39687C23.6276 4.41875 23.2938 4.32031 22.9873 4.10156C22.3305 3.62031 21.6135 3.25391 20.8363 3.00234C20.0591 2.75078 19.2436 2.625 18.3898 2.625C16.2006 2.625 14.3397 3.39062 12.8072 4.92188C11.2747 6.45312 10.5085 8.3125 10.5085 10.5C10.5085 12.6875 11.2747 14.5469 12.8072 16.0781C14.3397 17.6094 16.2006 18.375 18.3898 18.375C19.2436 18.375 20.0591 18.2492 20.8363 17.9977C21.6135 17.7461 22.3305 17.3797 22.9873 16.8984C23.2938 16.6797 23.6276 16.5812 23.9889 16.6031C24.3501 16.625 24.6511 16.7562 24.8919 16.9969C25.1547 17.2594 25.286 17.5656 25.286 17.9156C25.286 18.2656 25.1437 18.55 24.8591 18.7687C23.9615 19.4688 22.9654 20.0156 21.8708 20.4094C20.7761 20.8031 19.6158 21 18.3898 21ZM26.5339 11.8125H18.3898C18.0177 11.8125 17.7057 11.6867 17.4539 11.4352C17.2022 11.1836 17.0763 10.8719 17.0763 10.5C17.0763 10.1281 17.2022 9.81641 17.4539 9.56484C17.7057 9.31328 18.0177 9.1875 18.3898 9.1875H26.5339L25.3517 8.00625C25.1109 7.76562 24.9905 7.45937 24.9905 7.0875C24.9905 6.71562 25.1109 6.40937 25.3517 6.16875C25.5925 5.92812 25.899 5.80781 26.2712 5.80781C26.6434 5.80781 26.9499 5.92812 27.1907 6.16875L30.6059 9.58125C30.8686 9.84375 31 10.15 31 10.5C31 10.85 30.8686 11.1562 30.6059 11.4187L27.1907 14.8312C26.9499 15.0719 26.6434 15.1922 26.2712 15.1922C25.899 15.1922 25.5925 15.0719 25.3517 14.8312C25.1109 14.5906 24.9905 14.2844 24.9905 13.9125C24.9905 13.5406 25.1109 13.2344 25.3517 12.9937L26.5339 11.8125Z" fill="#413685"/>
</svg>
