<svg width="634" height="700" viewBox="0 0 634 700" fill="none" xmlns="http://www.w3.org/2000/svg">
<path d="M183.333 200H316.667C325.507 200 333.986 196.488 340.237 190.237C346.488 183.986 350 175.507 350 166.667C350 157.826 346.488 149.348 340.237 143.097C333.986 136.845 325.507 133.333 316.667 133.333H183.333C174.493 133.333 166.014 136.845 159.763 143.097C153.512 149.348 150 157.826 150 166.667C150 175.507 153.512 183.986 159.763 190.237C166.014 196.488 174.493 200 183.333 200Z" fill="#1C274C"/>
<path d="M183.333 333.333H316.667C325.507 333.333 333.986 329.821 340.237 323.57C346.488 317.319 350 308.84 350 300C350 291.159 346.488 282.681 340.237 276.43C333.986 270.178 325.507 266.667 316.667 266.667H183.333C174.493 266.667 166.014 270.178 159.763 276.43C153.512 282.681 150 291.159 150 300C150 308.84 153.512 317.319 159.763 323.57C166.014 329.821 174.493 333.333 183.333 333.333Z" fill="#1C274C"/>
<path d="M183.333 466.667H316.667C325.507 466.667 333.986 463.155 340.237 456.904C346.488 450.652 350 442.174 350 433.333C350 424.493 346.488 416.014 340.237 409.763C333.986 403.512 325.507 400 316.667 400H183.333C174.493 400 166.014 403.512 159.763 409.763C153.512 416.014 150 424.493 150 433.333C150 442.174 153.512 450.652 159.763 456.904C166.014 463.155 174.493 466.667 183.333 466.667Z" fill="#1C274C"/>
<path d="M416.666 200H450C458.84 200 467.319 196.488 473.57 190.237C479.821 183.986 483.333 175.507 483.333 166.667C483.333 157.826 479.821 149.348 473.57 143.097C467.319 136.845 458.84 133.333 450 133.333H416.666C407.826 133.333 399.347 136.845 393.096 143.097C386.845 149.348 383.333 157.826 383.333 166.667C383.333 175.507 386.845 183.986 393.096 190.237C399.347 196.488 407.826 200 416.666 200Z" fill="#1C274C"/>
<path d="M416.666 333.333H450C458.84 333.333 467.319 329.821 473.57 323.57C479.821 317.319 483.333 308.84 483.333 300C483.333 291.159 479.821 282.681 473.57 276.43C467.319 270.178 458.84 266.667 450 266.667H416.666C407.826 266.667 399.347 270.178 393.096 276.43C386.845 282.681 383.333 291.159 383.333 300C383.333 308.84 386.845 317.319 393.096 323.57C399.347 329.821 407.826 333.333 416.666 333.333Z" fill="#1C274C"/>
<path d="M416.666 466.667H450C458.84 466.667 467.319 463.155 473.57 456.904C479.821 450.652 483.333 442.174 483.333 433.333C483.333 424.493 479.821 416.014 473.57 409.763C467.319 403.512 458.84 400 450 400H416.666C407.826 400 399.347 403.512 393.096 409.763C386.845 416.014 383.333 424.493 383.333 433.333C383.333 442.174 386.845 450.652 393.096 456.904C399.347 463.155 407.826 466.667 416.666 466.667Z" fill="#1C274C"/>
<path d="M600 0H33.3333C24.4928 0 16.0143 3.51189 9.76311 9.76311C3.51189 16.0143 0 24.4928 0 33.3333V683.333C0 687.754 1.75595 691.993 4.88156 695.118C8.00716 698.244 12.2464 700 16.6667 700C21.0269 699.776 25.1639 698.003 28.3333 695L133.333 618.333L205 695C208.115 698.054 212.304 699.764 216.667 699.764C221.029 699.764 225.218 698.054 228.333 695L316.667 618.333L405 695C408.115 698.054 412.304 699.764 416.667 699.764C421.029 699.764 425.218 698.054 428.333 695L500 618.333L605 695C608.169 698.003 612.306 699.776 616.667 700C621.087 700 625.326 698.244 628.452 695.118C631.577 691.993 633.333 687.754 633.333 683.333V33.3333C633.333 24.4928 629.821 16.0143 623.57 9.76311C617.319 3.51189 608.841 0 600 0ZM566.667 585L540 565L491.667 530L451.667 573.333L413.333 613.333L360 568.333L316.667 530L273.333 568.333L220 613.333L181.667 573.333L141.667 530L93.3333 565L66.6667 585V66.6667H566.667V585Z" fill="#1C274C"/>
</svg>
