<svg width="634" height="700" viewBox="0 0 634 700" fill="none" xmlns="http://www.w3.org/2000/svg">
<path d="M600 0H33.3333C24.4928 0 16.0143 3.51189 9.76311 9.76311C3.51189 16.0143 0 24.4928 0 33.3333V683.333C0 687.754 1.75595 691.993 4.88156 695.118C8.00716 698.244 12.2464 700 16.6667 700C21.0269 699.776 25.1639 698.003 28.3333 695L133.333 618.333L205 695C208.115 698.054 212.304 699.764 216.667 699.764C221.029 699.764 225.218 698.054 228.333 695L316.667 618.333L405 695C408.115 698.054 412.304 699.764 416.667 699.764C421.029 699.764 425.218 698.054 428.333 695L500 618.333L605 695C608.169 698.003 612.306 699.776 616.667 700C621.087 700 625.326 698.244 628.452 695.118C631.577 691.993 633.333 687.754 633.333 683.333V33.3333C633.333 24.4928 629.821 16.0143 623.57 9.76311C617.319 3.51189 608.841 0 600 0ZM316.667 466.667H183.333C174.493 466.667 166.014 463.155 159.763 456.904C153.512 450.652 150 442.174 150 433.333C150 424.493 153.512 416.014 159.763 409.763C166.014 403.512 174.493 400 183.333 400H316.667C325.507 400 333.986 403.512 340.237 409.763C346.488 416.014 350 424.493 350 433.333C350 442.174 346.488 450.652 340.237 456.904C333.986 463.155 325.507 466.667 316.667 466.667ZM316.667 333.333H183.333C174.493 333.333 166.014 329.821 159.763 323.57C153.512 317.319 150 308.841 150 300C150 291.159 153.512 282.681 159.763 276.43C166.014 270.179 174.493 266.667 183.333 266.667H316.667C325.507 266.667 333.986 270.179 340.237 276.43C346.488 282.681 350 291.159 350 300C350 308.841 346.488 317.319 340.237 323.57C333.986 329.821 325.507 333.333 316.667 333.333ZM316.667 200H183.333C174.493 200 166.014 196.488 159.763 190.237C153.512 183.986 150 175.507 150 166.667C150 157.826 153.512 149.348 159.763 143.096C166.014 136.845 174.493 133.333 183.333 133.333H316.667C325.507 133.333 333.986 136.845 340.237 143.096C346.488 149.348 350 157.826 350 166.667C350 175.507 346.488 183.986 340.237 190.237C333.986 196.488 325.507 200 316.667 200ZM450 466.667H416.667C407.826 466.667 399.348 463.155 393.096 456.904C386.845 450.652 383.333 442.174 383.333 433.333C383.333 424.493 386.845 416.014 393.096 409.763C399.348 403.512 407.826 400 416.667 400H450C458.841 400 467.319 403.512 473.57 409.763C479.821 416.014 483.333 424.493 483.333 433.333C483.333 442.174 479.821 450.652 473.57 456.904C467.319 463.155 458.841 466.667 450 466.667ZM450 333.333H416.667C407.826 333.333 399.348 329.821 393.096 323.57C386.845 317.319 383.333 308.841 383.333 300C383.333 291.159 386.845 282.681 393.096 276.43C399.348 270.179 407.826 266.667 416.667 266.667H450C458.841 266.667 467.319 270.179 473.57 276.43C479.821 282.681 483.333 291.159 483.333 300C483.333 308.841 479.821 317.319 473.57 323.57C467.319 329.821 458.841 333.333 450 333.333ZM450 200H416.667C407.826 200 399.348 196.488 393.096 190.237C386.845 183.986 383.333 175.507 383.333 166.667C383.333 157.826 386.845 149.348 393.096 143.096C399.348 136.845 407.826 133.333 416.667 133.333H450C458.841 133.333 467.319 136.845 473.57 143.096C479.821 149.348 483.333 157.826 483.333 166.667C483.333 175.507 479.821 183.986 473.57 190.237C467.319 196.488 458.841 200 450 200Z" fill="#1C274C"/>
</svg>
