<svg width="25" height="27" viewBox="0 0 25 27" fill="none" xmlns="http://www.w3.org/2000/svg">
<path d="M21.1701 20.97C19.5601 22.91 17.41 24.26 15.01 24.83C12.62 25.39 10.12 25.13 7.87002 24.1C5.63002 23.07 3.76005 21.31 2.53005 19.08C1.31005 16.85 0.799968 14.27 1.06997 11.72C1.33997 9.15997 2.39007 6.76 4.05007 4.88C5.72007 2.99 7.91997 1.70997 10.32 1.21997M14.6801 1.22998C16.2901 1.55998 17.8301 2.24 19.1701 3.25C20.5101 4.25 21.63 5.54003 22.45 7.03003C23.28 8.53003 23.79 10.19 23.95 11.91C24.11 13.63 23.91 15.36 23.37 17" stroke="#1C274C" stroke-width="2" stroke-linecap="round"/>
<path d="M10.02 12.42V10.09C10.02 8.66997 11.13 7.53003 12.5 7.53003C13.88 7.53003 14.99 8.66997 14.99 10.09V12.42M9.40002 12.42H15.61C16.3 12.42 16.85 13 16.85 13.72V17.3C16.85 18.03 16.3 18.61 15.61 18.61H9.40002C8.71002 18.61 8.15002 18.03 8.15002 17.3V13.72C8.15002 13 8.71002 12.42 9.40002 12.42Z" stroke="#8D93A5" stroke-width="2"/>
</svg>
