<svg width="518" height="718" viewBox="0 0 518 718" fill="none" xmlns="http://www.w3.org/2000/svg">
<path fill-rule="evenodd" clip-rule="evenodd" d="M259 50.6665C189.964 50.6665 134 106.631 134 175.666C134 244.702 189.964 300.666 259 300.666C328.037 300.666 384 244.702 384 175.666C384 106.631 328.037 50.6665 259 50.6665ZM84 175.666C84 79.0165 162.35 0.666504 259 0.666504C355.65 0.666504 434 79.0165 434 175.666C434 272.316 355.65 350.666 259 350.666C162.35 350.666 84 272.316 84 175.666Z" fill="#1C274C"/>
<path fill-rule="evenodd" clip-rule="evenodd" d="M0.666992 578.046C0.666992 480.083 80.0833 400.667 178.048 400.667H339.954C437.917 400.667 517.334 480.083 517.334 578.046C517.334 654.973 454.974 717.333 378.047 717.333H139.953C63.0273 717.333 0.666992 654.973 0.666992 578.046ZM178.048 450.667C107.697 450.667 50.667 507.696 50.667 578.046C50.667 627.36 90.6417 667.333 139.953 667.333H378.047C427.36 667.333 467.334 627.36 467.334 578.046C467.334 507.696 410.304 450.667 339.954 450.667H178.048Z" fill="#1C274C"/>
</svg>
