<svg width="16" height="16" viewBox="0 0 16 16" fill="none" xmlns="http://www.w3.org/2000/svg">
<path d="M14 10.6575V3.5C14 1.56625 12.4338 0 10.5 0C8.56625 0 7 1.56625 7 3.5V12.25C7 13.2125 6.2125 14 5.25 14C4.2875 14 3.5 13.2125 3.5 12.25V5.0925C4.515 4.725 5.25 3.7625 5.25 2.625C5.25 1.1725 4.0775 0 2.625 0C1.1725 0 0 1.1725 0 2.625C0 3.7625 0.735 4.725 1.75 5.0925V12.25C1.75 14.1838 3.31625 15.75 5.25 15.75C7.18375 15.75 8.75 14.1838 8.75 12.25V3.5C8.75 2.5375 9.5375 1.75 10.5 1.75C11.4625 1.75 12.25 2.5375 12.25 3.5V10.6575C11.235 11.0163 10.5 11.9788 10.5 13.125C10.5 14.5775 11.6725 15.75 13.125 15.75C14.5775 15.75 15.75 14.5775 15.75 13.125C15.75 11.9875 15.015 11.025 14 10.6575Z" fill="black"/>
</svg>
