<svg width="24" height="25" viewBox="0 0 24 25" fill="none" xmlns="http://www.w3.org/2000/svg">
<path d="M23.3199 11.58L18.59 6.66003C18.48 6.55003 18.35 6.46002 18.2 6.40002C18.06 6.33002 17.91 6.30005 17.75 6.30005C17.43 6.30005 17.13 6.43003 16.91 6.66003C16.69 6.90003 16.5601 7.21004 16.5601 7.54004C16.5601 7.86004 16.69 8.18003 16.91 8.41003L19.63 11.23H7.09998C6.78998 11.23 6.49001 11.35 6.26001 11.59C6.04001 11.82 5.92004 12.13 5.92004 12.45C5.92004 12.78 6.04001 13.0899 6.26001 13.3199C6.49001 13.5499 6.78998 13.6801 7.09998 13.6801H19.63L16.91 16.5C16.8 16.61 16.71 16.75 16.65 16.9C16.59 17.05 16.5601 17.21 16.5601 17.37C16.5601 17.53 16.59 17.7 16.65 17.85C16.71 18 16.8 18.13 16.91 18.25C17.02 18.36 17.15 18.45 17.29 18.51C17.44 18.58 17.59 18.61 17.75 18.61C17.91 18.61 18.06 18.58 18.21 18.51C18.35 18.45 18.48 18.36 18.59 18.25L23.3199 13.33C23.4299 13.21 23.52 13.0801 23.58 12.9301C23.64 12.7801 23.67 12.62 23.67 12.45C23.67 12.29 23.64 12.13 23.58 11.98C23.52 11.83 23.4299 11.7 23.3199 11.58Z" fill="#EE2456"/>
<path d="M7.09998 14.9102C6.46998 14.9102 5.87005 14.6501 5.43005 14.1901C4.98005 13.7301 4.72998 13.1101 4.72998 12.4501C4.72998 11.8001 4.98005 11.1801 5.43005 10.7201C5.87005 10.2501 6.46998 10.0001 7.09998 10.0001H14.2V2.62012C14.2 1.97012 13.95 1.34013 13.51 0.880127C13.06 0.420127 12.46 0.160156 11.83 0.160156H2.37C1.74 0.160156 1.13994 0.420127 0.689941 0.880127C0.249941 1.34013 0 1.97012 0 2.62012V22.2902C0 22.9402 0.249941 23.5702 0.689941 24.0302C1.13994 24.4902 1.74 24.7501 2.37 24.7501H11.83C12.46 24.7501 13.06 24.4902 13.51 24.0302C13.95 23.5702 14.2 22.9402 14.2 22.2902V14.9102H7.09998Z" fill="#FBC6D3"/>
</svg>
